<svg xmlns="http://www.w3.org/2000/svg" overflow="visible" viewBox="0 0 107.1 107.1">
    <path class="st0"
        d="M29.1 73.8C40 72.5 47.9 47 49 61.5c1 12.8-5.1 28.2-18.4 28.6-15.5.4-21-16.7-21.5-27.4-.5-11.7 9.1 12.4 20 11.1zM3.8 41.9l10.6-.5c3.5-.2 6.9-.6 10.1-1.3 3.3-.7 6.3-1.7 9.2-3.1a44 44 0 004.4-2.1l2.3-1.1 2.5-1.1.8.7c-1.1 3.8-4 6.9-7.4 8.8a31.2 31.2 0 01-11 3.4 48.3 48.3 0 01-21.8-2.7l.3-1zM77.7 74.1c-10.9-1.4-18.6-27-19.8-12.5-1.1 12.8 4.8 28.3 18.1 28.7 15.6.5 21.3-16.5 21.8-27.2.6-11.7-9.2 12.4-20.1 11zM103.4 43.4a46.6 46.6 0 01-21.9 2.5c-3.7-.5-7.6-1.6-11-3.5-3.4-2-6.2-5-7.3-8.9l.8-.6 2.5 1.2 2.3 1.1 4.4 2.1c2.9 1.4 5.9 2.5 9.2 3.1 3.3.7 6.6 1.1 10.1 1.4l10.6.7.3.9z" />
</svg>