<svg xmlns="http://www.w3.org/2000/svg" overflow="visible" viewBox="0 0 107.1 107.1">
  <style>
    .st0{fill:none;stroke:#29abe2;stroke-width:2;stroke-miterlimit:10}
    .st1{fill:#29abe2}
  </style>
  <path class="st0" d="M26.5 36.8C37.4 35.5 47.9 47 49 61.5c1 12.8-5.1 28.2-18.4 28.6-15.5.4-21-16.7-21.5-27.4-.5-11.7 6.6-24.6 17.4-25.9z"/>
  <path class="st1" d="M3.3 42.1a55 55 0 017.2-10.8c2.8-3.3 6.1-6.5 10.4-8.7a17 17 0 0112.9-1.4l.9.3.9.4a16.3 16.3 0 018.3 11l-.8.6-5.1-3.6c-1.6-1.1-3.2-2-4.8-2.6-3.1-1.3-6.4-1-9.9.5a40.2 40.2 0 00-9.8 6.6 88.8 88.8 0 00-4.7 4.2L4.2 43l-.9-.9zM30.7 69c3.5 3.5 10-.2 5-9.3 6.8 0 8.6 6.8 8.5 10.7-.1 3.9-2.5 8.5-6.8 8.5s-6.9-5.6-6.7-9.9z"/>
  <path class="st0" d="M80.6 37.1c-10.9-1.4-21.5 10-22.7 24.5-1.1 12.8 4.8 28.3 18.1 28.7 15.6.5 21.3-16.5 21.8-27.2.6-11.7-6.3-24.6-17.2-26z"/>
  <path class="st1" d="M103 43.2l-4.6-4.4-4.6-4.2a43.8 43.8 0 00-9.8-6.7 12 12 0 00-9.9-.6c-1.6.6-3.2 1.5-4.8 2.5l-5.2 3.6-.8-.6a16 16 0 018.5-10.9l.9-.4.9-.3 1.9-.5a18.5 18.5 0 0111 2.1c4.2 2.3 7.4 5.5 10.3 8.8 2.8 3.4 5.1 7.1 7 10.9l-.8.7zM76.2 69.3c-3.5 3.4-10-.3-4.9-9.3-6.8-.1-8.7 6.7-8.6 10.6.1 3.9 2.4 8.5 6.7 8.5 4.2 0 6.9-5.6 6.8-9.8z"/>
</svg>