<svg xmlns="http://www.w3.org/2000/svg" width="101" height="101" overflow="visible">
  <style>
    .st0{fill:none;stroke:#000;stroke-miterlimit:10}
  </style>
  <path class="st0" d="M47.3 35.4c-.6 0-1-.4-1-1v-6.1c0-.2-.1-.3-.3-.3h-4.7c-.8 0-1.3-1-.8-1.6l9.2-11.5c.2-.2.5-.4.8-.4.3 0 .6.1.8.4l9.2 11.5c.5.6 0 1.7-.8 1.6H55c-.2 0-.3.1-.3.3v6.1c0 .6-.4 1-1 1h-6.4zM53.7 65.6c.6 0 1 .4 1 1v6.1c0 .2.1.3.3.3h4.7c.8 0 1.3 1 .8 1.6l-9.2 11.5c-.2.2-.5.4-.8.4a1 1 0 01-.8-.4l-9.2-11.5c-.5-.6 0-1.6.8-1.6H46c.2 0 .3-.1.3-.3v-6.1c0-.6.4-1 1-1h6.4zM35.4 53.6c0 .6-.4 1-1 1h-6.1c-.2 0-.3.1-.3.3v4.7c0 .8-1 1.3-1.6.8l-11.5-9.2c-.2-.2-.4-.5-.4-.8 0-.3.1-.6.4-.8l11.5-9.2c.6-.5 1.7 0 1.6.8v4.7c0 .2.1.3.3.3h6.1c.6 0 1 .4 1 1v6.4zM65.6 47.3c0-.6.4-1 1-1h6.1c.2 0 .3-.1.3-.3v-4.7c0-.8 1-1.3 1.6-.8l11.5 9.2c.2.2.4.5.4.8 0 .3-.1.6-.4.8l-11.5 9.2c-.6.5-1.6 0-1.6-.8V55c0-.2-.1-.3-.3-.3h-6.1c-.6 0-1-.4-1-1v-6.4z"/>
  <g>
    <path fill="#bd8877" d="M48.7 58.1l-6.1-3.4V44.3l6.1 3.3z"/>
    <path fill="#d79e8c" d="M48.7 47.6l-6.1-3.3 9.7-1.4 6.1 3.4z"/>
    <path fill="#a17163" d="M58.4 46.3v10.4l-9.7 1.4V47.6z"/>
  </g>
  <path class="st0" d="M58.4 46.2v10.5l-9.7 1.4-6.1-3.4V44.3l9.7-1.4z"/>
</svg>